<svg height="512" viewBox="0 0 44 59" width="512" xmlns="http://www.w3.org/2000/svg"><g id="Page-1" fill="none" fill-rule="evenodd"><g id="054---Radio-Mast" fill-rule="nonzero"><g fill="#7f8c8d"><path id="Shape" d="m35 50.5c-.2494997.0005045-.4900482-.0929232-.6738-.2617l-18.77-17.14c-.2710991-.2390462-.3921063-.6057783-.3165057-.9592219.0756007-.3534435.336042-.6385848.6812083-.7458134.3451664-.1072287.7213325-.0198545.9838974.2285353l18.77 17.14c.3046598.2784042.4069935.7153714.257634 1.1001027-.1493595.3847314-.5197277.6381873-.932434.6380973z"/><path id="Shape" d="m9.0005 50.5c-.41275337.0001352-.78318139-.2533372-.93255049-.6381153-.1493691-.3847782-.04698536-.8217939.25775049-1.1001847l18.77-17.14c.2625649-.2483898.638731-.335764.9838974-.2285353.3451663.1072286.6056076.3923699.6812083.7458134.0756006.3534436-.0454066.7201757-.3165057.9592219l-18.77 17.14c-.18373666.1688132-.42428681.2622772-.6738.2618z"/><path id="Shape" d="m29.94 37.88c-.2495251.0004805-.4900964-.0929421-.6739-.2617l-11.04-10.08c-.2701652-.2392911-.390433-.6055897-.3146916-.9584533.0757415-.3528635.3357396-.6375388.6803083-.7448785.3445688-.1073397.7202423-.020688.9829833.2267318l11.04 10.08c.3047223.2783785.4071118.7153694.2577685 1.100138-.1493432.3847686-.5197334.6382559-.9324685.638162z"/><path id="Shape" d="m14.0605 37.88c-.4127534.0001352-.7831814-.2533372-.9325505-.6381153-.1493691-.3847782-.0469853-.8217939.2577505-1.1001847l11.04-10.08c.262741-.2474198.6384145-.3340715.9829833-.2267318.3445687.1073397.6045668.392015.6803083.7448785.0757414.3528636-.0445264.7191622-.3146916.9584533l-11.04 10.08c-.1838256.1686583-.4243259.2620672-.6738.2617z"/><path id="Shape" d="m26.24 50.5c-.2494997.0005045-.4900482-.0929232-.6738-.2617l-12.68-11.58c-.2637692-.2410114-.378924-.6044342-.3020866-.9533708.0768374-.3489365.3339935-.6303748.6746-.7383.3406066-.1079251.7129174-.0259406.9766866.2150708l12.68 11.58c.304817.2784646.4071666.715629.2576423 1.1004646-.1495242.3848357-.5201793.6382185-.9330423.6378354z"/><path id="Shape" d="m17.76 50.5c-.4127716.0001765-.7832375-.253281-.9326324-.6380687-.149395-.3847877-.047017-.8218282.2577324-1.1002313l12.68-11.58c.4077518-.3725713 1.0403287-.3440518 1.4129.0637s.3440518 1.0403287-.0637 1.4129l-12.68 11.58c-.1839263.1688176-.4246443.2622418-.6743.2617z"/></g><path id="Shape" d="m8 50.5c-.34356178-.0002356-.66294861-.1768205-.84584191-.4676552-.1828933-.2908346-.20368303-.6551943-.05505809-.9649448l12.21-25.43c.2389184-.498078.836372-.7081683 1.33445-.4692499.498078.2389183.7081683.8363719.46925 1.3344499l-12.21 25.43c-.16658512.3471824-.51772076.5678674-.9028.5674z" fill="#95a5a5"/><path id="Shape" d="m36.0005 50.5c-.3848032.0002906-.7355871-.2203933-.9019-.5674l-12.21-25.43c-.1634151-.3232214-.1392889-.7095397.0630711-1.0099178.2023599-.3003781.5513206-.4678606.9122569-.4378347.3609363.0300258.6774264.2528665.827372.5825525l12.21 25.43c.1148513.2390482.1299782.5139444.0420495.7641511s-.271702.4552045-.5108495.5698489c-.1346739.0651606-.2823909.0988756-.432.0986z" fill="#95a5a5"/><path id="Shape" d="m33.7007 36.46c-.4266007.0001598-.8063302-.2703261-.9455913-.6735561-.1392611-.4032301-.0073861-.8504058.3283913-1.1135439 6.0530374-4.7302463 8.4369567-12.7807139 5.9355052-20.0441313-2.5014516-7.26341732-9.3369162-12.13881719-17.0190052-12.13881719s-14.51755361 4.87539987-17.01900515 12.13881719c-2.50145155 7.2634174-.11753222 15.313885 5.93550515 20.0441313.2863001.2186268.432887.5743423.3837399.9312036-.0491471.3568614-.2864316.6597099-.6211713.7928069s-.71519511.07587-.9959686-.1498105c-6.72461422-5.2563672-9.37244592-14.2010348-6.59271308-22.270912 2.77973284-8.06987722 10.37440168-13.48643468 18.90961308-13.48643468s16.1298802 5.41655746 18.9096131 13.48643468c2.7797328 8.0698772.1319011 17.0145448-6.5927131 22.270912-.1756397.1381949-.3927116.2131943-.6162.2129z" fill="#e64c3c"/><path id="Shape" d="m31.47 31.81c-.411638-.000007-.7812171-.2522573-.9312219-.6355905-.1500048-.3833333-.049785-.8194239.2525219-1.0988095 3.9479027-3.6242838 5.2671208-9.2998338 3.3224304-14.2937849s-6.7546983-8.28272426-12.1139304-8.28272426-10.16924 3.28877316-12.11393039 8.28272426c-1.94469044 4.9939511-.62547233 10.6695011 3.32243039 14.2937849.2664722.2414712.3827726.6074244.3045895.9584275s-.3388091.632999-.6825764.7385442-.7177334.018385-.9794131-.2282717c-4.55254416-4.1830546-6.07221781-10.7308046-3.82751404-16.4914391 2.24470374-5.76063438 7.79388994-9.55391417 13.97641404-9.55391417s11.7317103 3.79327979 13.976414 9.55391417c2.2447038 5.7606345.7250302 12.3083845-3.827514 16.4914391-.1845489.1711184-.4270262.2660443-.6787.2657z" fill="#e64c3c"/><path id="Shape" d="m29.14 26.97c-.3807342-.0006539-.7281063-.2173264-.8961486-.5589706-.1680423-.3416443-.1276326-.7490524.1042486-1.0510294 1.0765711-1.390793 1.6579435-3.1012293 1.6519-4.86 0-4.418278-3.581722-8-8-8s-8 3.581722-8 8c-.0057953 1.7586123.5757123 3.4688211 1.6523 4.8594.3370594.4376581.255508 1.0656906-.18215 1.40275-.4376581.3370594-1.0656906.255508-1.40275-.18215-1.346787-1.7399926-2.0743548-3.8796907-2.0674-6.08 0-5.5228475 4.4771525-10 10-10s10 4.4771525 10 10c.0069548 2.2003093-.720613 4.3400074-2.0674 6.08-.189211.24614-.4821396.390276-.7926.39z" fill="#e64c3c"/><path id="Shape" d="m26 20.5c-.0002895 1.4620615-.797681 2.8076597-2.08 3.51-.04.02-.08.04-.13.06-.0740171.04852-.1549264.0856034-.24.11-.9892902.4266674-2.1107098.4266674-3.1 0-.0850736-.0243966-.1659829-.06148-.24-.11-.05-.02-.09-.04-.13-.06-1.7129669-.9372549-2.4989051-2.9743041-1.8593572-4.8192108.639548-1.8449066 2.5176573-2.9584478 4.4431939-2.6343936 1.9255365.3240542 3.3357112 1.9909903 3.3361633 3.9436044z" fill="#7f8c8d"/><rect id="Rectangle-path" fill="#4482c3" height="10" rx="2" width="44" y="49"/><path id="Shape" d="m6 54h-2c-.55228475 0-1-.4477153-1-1s.44771525-1 1-1h2c.55228475 0 1 .4477153 1 1s-.44771525 1-1 1z" fill="#b0d3f0"/><path id="Shape" d="m40 54h-30c-.55228475 0-1-.4477153-1-1s.44771525-1 1-1h30c.5522847 0 1 .4477153 1 1s-.4477153 1-1 1z" fill="#b0d3f0"/></g></g></svg>