<svg xmlns="http://www.w3.org/2000/svg" width="44" height="36" viewBox="0 0 44 36"><defs><style>.a{fill:#f9a03e;}</style></defs><path class="a" d="M8.8,6.75a3.339,3.339,0,0,0,3.3-3.375,3.3,3.3,0,1,0-6.6,0A3.339,3.339,0,0,0,8.8,6.75Zm26.4,0a3.339,3.339,0,0,0,3.3-3.375,3.3,3.3,0,1,0-6.6,0A3.339,3.339,0,0,0,35.2,6.75ZM43.84,32.913l-3.025-7.734-2.825,3.263-.137,1.28,1.9,4.866A2.2,2.2,0,0,0,41.8,36a2.1,2.1,0,0,0,.818-.162A2.266,2.266,0,0,0,43.84,32.913ZM41.489,18.162l-1.272-5.639a4.532,4.532,0,0,0-2.578-3.157,4.159,4.159,0,0,0-3.857.232,7.671,7.671,0,0,0-3.307,4.177L29.7,16.158l-1.1.717v-6.75A1.116,1.116,0,0,0,27.5,9h-11a1.116,1.116,0,0,0-1.1,1.125v6.75l-1.107-.717-.777-2.384A7.616,7.616,0,0,0,10.209,9.6a4.16,4.16,0,0,0-3.857-.232,4.532,4.532,0,0,0-2.578,3.157L2.509,18.162a4.579,4.579,0,0,0,.99,3.987l4.62,5.337L8.813,34A2.22,2.22,0,0,0,11,36c.082,0,.158-.007.241-.014A2.235,2.235,0,0,0,13.186,33.5l-.694-6.525a4.543,4.543,0,0,0-1.072-2.461L8.442,21.073l1.21-4.943.467,1.434A4.54,4.54,0,0,0,11.8,19.856l3.513,2.285a2.878,2.878,0,0,0,1.182.352h11a2.878,2.878,0,0,0,1.182-.352l3.513-2.285a4.512,4.512,0,0,0,1.684-2.292l.467-1.434,1.21,4.943-2.977,3.445a4.543,4.543,0,0,0-1.072,2.461L30.812,33.5a2.24,2.24,0,0,0,1.946,2.482c.082.007.158.014.241.014a2.22,2.22,0,0,0,2.186-2l.694-6.511,4.62-5.337a4.6,4.6,0,0,0,.99-3.987ZM3.183,25.179.158,32.913a2.266,2.266,0,0,0,1.224,2.925,2.188,2.188,0,0,0,2.86-1.252l1.9-4.866-.137-1.28L3.183,25.179Z" transform="translate(0.001)"/></svg>